<svg width="426" height="327" xmlns="http://www.w3.org/2000/svg" xmlns:xlink="http://www.w3.org/1999/xlink" overflow="hidden"><defs><clipPath id="clip0"><path d="M403 160 829 160 829 487 403 487Z" fill-rule="evenodd" clip-rule="evenodd"/></clipPath></defs><g clip-path="url(#clip0)" transform="translate(-403 -160)"><path d="M545.952 242.093 640.936 241.807 593.196 323.923Z" fill="#99CB38" fill-rule="evenodd" fill-opacity="0.6"/><path d="M404 323.5 450.843 242 546.157 242 593 323.5 546.157 405 450.843 405Z" fill="#51C3F9" fill-rule="evenodd" fill-opacity="0.8"/><path d="M593 322.5 639.843 241 735.157 241 782 322.5 735.157 404 639.843 404Z" fill="#99CB38" fill-rule="evenodd"/><path d="M546 404.5 592.843 323 687.157 323 734 404.5 687.157 486 592.843 486Z" fill="#51C3F9" fill-rule="evenodd" fill-opacity="0.701961"/><path d="M640 404.5 686.843 323 782.157 323 829 404.5 782.157 486 686.843 486Z" fill="#37A76F" fill-rule="evenodd" fill-opacity="0.701961"/><path d="M546 405 593.5 322 641 405Z" fill="#51C3F9" fill-rule="evenodd" fill-opacity="0.6"/><path d="M404 324 451 243 498 324 451 405Z" fill="#51C3F9" fill-rule="evenodd" fill-opacity="0.8"/><path d="M451 241.5 497.843 160 593.157 160 640 241.5 593.157 323 497.843 323Z" fill="#99CB38" fill-rule="evenodd" fill-opacity="0.6"/></g></svg>